<svg width="20" height="25" viewBox="0 0 20 25" fill="none" xmlns="http://www.w3.org/2000/svg">
<path d="M10.8435 23.4853L10.8434 23.4853C10.6083 23.6873 10.3085 23.7983 9.99852 23.798C9.68875 23.7977 9.38934 23.6864 9.15463 23.4843C9.15448 23.4841 9.15432 23.484 9.15417 23.4839L8.76928 23.1499C8.76897 23.1496 8.76866 23.1494 8.76835 23.1491C3.19143 18.2683 0.5 13.9039 0.5 10C0.5 7.48044 1.50089 5.06408 3.28249 3.28249C5.06408 1.50089 7.48044 0.5 10 0.5C12.5196 0.5 14.9359 1.50089 16.7175 3.28249C18.4991 5.06408 19.5 7.48044 19.5 10C19.5 13.9942 16.6824 18.4709 10.8435 23.4853ZM10 5.65385C8.84733 5.65385 7.74187 6.11174 6.92681 6.92681C6.11174 7.74187 5.65385 8.84733 5.65385 10C5.65385 11.1527 6.11174 12.2581 6.92681 13.0732C7.74187 13.8883 8.84733 14.3462 10 14.3462C11.1527 14.3462 12.2581 13.8883 13.0732 13.0732C13.8883 12.2581 14.3462 11.1527 14.3462 10C14.3462 8.84733 13.8883 7.74187 13.0732 6.92681C12.2581 6.11174 11.1527 5.65385 10 5.65385Z" fill="white" stroke="#1400FF"/>
</svg>
